<?xml version="1.0" encoding="UTF-8" standalone="no"?>
<!DOCTYPE svg PUBLIC "-//W3C//DTD SVG 1.1//EN"
 "http://www.w3.org/Graphics/SVG/1.1/DTD/svg11.dtd">
<!-- Generated by graphviz version 5.0.0 (20220707.1540)
 -->
<!-- Title: dependencies Pages: 1 -->
<svg width="2143pt" height="247pt"
 viewBox="0.00 0.00 2143.00 246.80" xmlns="http://www.w3.org/2000/svg" xmlns:xlink="http://www.w3.org/1999/xlink">
<g id="graph0" class="graph" transform="scale(1 1) rotate(0) translate(4 242.8)">
<title>dependencies</title>
<polygon fill="white" stroke="transparent" points="-4,4 -4,-242.8 2139,-242.8 2139,4 -4,4"/>
<text text-anchor="middle" x="1067.5" y="-8.2" font-family="sans-serif" font-size="14.00">dependencies</text>
<g id="clust1" class="cluster">
<title>cluster_AppModule</title>
<polygon fill="none" stroke="black" stroke-dasharray="1,5" points="8,-32.8 8,-230.8 2127,-230.8 2127,-32.8 8,-32.8"/>
</g>
<g id="clust2" class="cluster">
<title>cluster_AppModule_declarations</title>
<polygon fill="none" stroke="black" points="410,-40.8 410,-92.8 2119,-92.8 2119,-40.8 410,-40.8"/>
</g>
<g id="clust14" class="cluster">
<title>cluster_AppModule_imports</title>
<polygon fill="none" stroke="black" points="258,-40.8 258,-92.8 402,-92.8 402,-40.8 258,-40.8"/>
</g>
<g id="clust16" class="cluster">
<title>cluster_AppModule_bootstrap</title>
<polygon fill="none" stroke="black" points="999,-170.8 999,-222.8 1123,-222.8 1123,-170.8 999,-170.8"/>
</g>
<g id="clust17" class="cluster">
<title>cluster_AppModule_providers</title>
<polygon fill="none" stroke="black" points="16,-40.8 16,-92.8 250,-92.8 250,-40.8 16,-40.8"/>
</g>
<!-- AppComponent -->
<g id="node1" class="node">
<title>AppComponent</title>
<polygon fill="#ffffb3" stroke="black" points="2110.94,-84.8 2005.06,-84.8 2005.06,-48.8 2110.94,-48.8 2110.94,-84.8"/>
<text text-anchor="middle" x="2058" y="-62.6" font-family="Times,serif" font-size="14.00">AppComponent</text>
</g>
<!-- AppModule -->
<g id="node12" class="node">
<title>AppModule</title>
<polygon fill="#8dd3c7" stroke="black" points="1102.66,-149.8 1099.66,-153.8 1078.66,-153.8 1075.66,-149.8 1019.34,-149.8 1019.34,-113.8 1102.66,-113.8 1102.66,-149.8"/>
<text text-anchor="middle" x="1061" y="-127.6" font-family="Times,serif" font-size="14.00">AppModule</text>
</g>
<!-- AppComponent&#45;&gt;AppModule -->
<g id="edge1" class="edge">
<title>AppComponent&#45;&gt;AppModule</title>
<path fill="none" stroke="black" d="M2058,-84.89C2058,-107.93 2058,-144.8 2058,-144.8 2058,-144.8 1112.89,-144.8 1112.89,-144.8"/>
<polygon fill="black" stroke="black" points="1112.89,-141.3 1102.89,-144.8 1112.89,-148.3 1112.89,-141.3"/>
</g>
<!-- CompeletedTodosComponent -->
<g id="node2" class="node">
<title>CompeletedTodosComponent</title>
<polygon fill="#ffffb3" stroke="black" points="1986.98,-84.8 1803.02,-84.8 1803.02,-48.8 1986.98,-48.8 1986.98,-84.8"/>
<text text-anchor="middle" x="1895" y="-62.6" font-family="Times,serif" font-size="14.00">CompeletedTodosComponent</text>
</g>
<!-- CompeletedTodosComponent&#45;&gt;AppModule -->
<g id="edge2" class="edge">
<title>CompeletedTodosComponent&#45;&gt;AppModule</title>
<path fill="none" stroke="black" d="M1895,-84.84C1895,-106.46 1895,-139.8 1895,-139.8 1895,-139.8 1112.93,-139.8 1112.93,-139.8"/>
<polygon fill="black" stroke="black" points="1112.93,-136.3 1102.93,-139.8 1112.93,-143.3 1112.93,-136.3"/>
</g>
<!-- DeletedTodosComponent -->
<g id="node3" class="node">
<title>DeletedTodosComponent</title>
<polygon fill="#ffffb3" stroke="black" points="1784.86,-84.8 1625.14,-84.8 1625.14,-48.8 1784.86,-48.8 1784.86,-84.8"/>
<text text-anchor="middle" x="1705" y="-62.6" font-family="Times,serif" font-size="14.00">DeletedTodosComponent</text>
</g>
<!-- DeletedTodosComponent&#45;&gt;AppModule -->
<g id="edge3" class="edge">
<title>DeletedTodosComponent&#45;&gt;AppModule</title>
<path fill="none" stroke="black" d="M1705,-85.02C1705,-105.17 1705,-134.8 1705,-134.8 1705,-134.8 1112.76,-134.8 1112.76,-134.8"/>
<polygon fill="black" stroke="black" points="1112.76,-131.3 1102.76,-134.8 1112.76,-138.3 1112.76,-131.3"/>
</g>
<!-- FavouriteTodosComponent -->
<g id="node4" class="node">
<title>FavouriteTodosComponent</title>
<polygon fill="#ffffb3" stroke="black" points="1606.99,-84.8 1437.01,-84.8 1437.01,-48.8 1606.99,-48.8 1606.99,-84.8"/>
<text text-anchor="middle" x="1522" y="-62.6" font-family="Times,serif" font-size="14.00">FavouriteTodosComponent</text>
</g>
<!-- FavouriteTodosComponent&#45;&gt;AppModule -->
<g id="edge4" class="edge">
<title>FavouriteTodosComponent&#45;&gt;AppModule</title>
<path fill="none" stroke="black" d="M1522,-85.02C1522,-103.63 1522,-129.8 1522,-129.8 1522,-129.8 1112.72,-129.8 1112.72,-129.8"/>
<polygon fill="black" stroke="black" points="1112.72,-126.3 1102.72,-129.8 1112.72,-133.3 1112.72,-126.3"/>
</g>
<!-- FooterComponent -->
<g id="node5" class="node">
<title>FooterComponent</title>
<polygon fill="#ffffb3" stroke="black" points="1418.88,-84.8 1301.12,-84.8 1301.12,-48.8 1418.88,-48.8 1418.88,-84.8"/>
<text text-anchor="middle" x="1360" y="-62.6" font-family="Times,serif" font-size="14.00">FooterComponent</text>
</g>
<!-- FooterComponent&#45;&gt;AppModule -->
<g id="edge5" class="edge">
<title>FooterComponent&#45;&gt;AppModule</title>
<path fill="none" stroke="black" d="M1360,-84.83C1360,-101.86 1360,-124.8 1360,-124.8 1360,-124.8 1112.89,-124.8 1112.89,-124.8"/>
<polygon fill="black" stroke="black" points="1112.89,-121.3 1102.89,-124.8 1112.89,-128.3 1112.89,-121.3"/>
</g>
<!-- LoginPageComponent -->
<g id="node6" class="node">
<title>LoginPageComponent</title>
<polygon fill="#ffffb3" stroke="black" points="1282.99,-84.8 1141.01,-84.8 1141.01,-48.8 1282.99,-48.8 1282.99,-84.8"/>
<text text-anchor="middle" x="1212" y="-62.6" font-family="Times,serif" font-size="14.00">LoginPageComponent</text>
</g>
<!-- LoginPageComponent&#45;&gt;AppModule -->
<g id="edge6" class="edge">
<title>LoginPageComponent&#45;&gt;AppModule</title>
<path fill="none" stroke="black" d="M1212,-85.04C1212,-100.37 1212,-119.8 1212,-119.8 1212,-119.8 1113.06,-119.8 1113.06,-119.8"/>
<polygon fill="black" stroke="black" points="1113.06,-116.3 1103.06,-119.8 1113.06,-123.3 1113.06,-116.3"/>
</g>
<!-- NavBarComponent -->
<g id="node7" class="node">
<title>NavBarComponent</title>
<polygon fill="#ffffb3" stroke="black" points="1123.37,-84.8 998.63,-84.8 998.63,-48.8 1123.37,-48.8 1123.37,-84.8"/>
<text text-anchor="middle" x="1061" y="-62.6" font-family="Times,serif" font-size="14.00">NavBarComponent</text>
</g>
<!-- NavBarComponent&#45;&gt;AppModule -->
<g id="edge7" class="edge">
<title>NavBarComponent&#45;&gt;AppModule</title>
<path fill="none" stroke="black" d="M1061,-84.91C1061,-84.91 1061,-103.79 1061,-103.79"/>
<polygon fill="black" stroke="black" points="1057.5,-103.79 1061,-113.79 1064.5,-103.79 1057.5,-103.79"/>
</g>
<!-- NotFoundComponent -->
<g id="node8" class="node">
<title>NotFoundComponent</title>
<polygon fill="#ffffb3" stroke="black" points="981.12,-84.8 842.88,-84.8 842.88,-48.8 981.12,-48.8 981.12,-84.8"/>
<text text-anchor="middle" x="912" y="-62.6" font-family="Times,serif" font-size="14.00">NotFoundComponent</text>
</g>
<!-- NotFoundComponent&#45;&gt;AppModule -->
<g id="edge8" class="edge">
<title>NotFoundComponent&#45;&gt;AppModule</title>
<path fill="none" stroke="black" d="M912,-85.04C912,-100.37 912,-119.8 912,-119.8 912,-119.8 1009.1,-119.8 1009.1,-119.8"/>
<polygon fill="black" stroke="black" points="1009.1,-123.3 1019.1,-119.8 1009.1,-116.3 1009.1,-123.3"/>
</g>
<!-- RegisterComponent -->
<g id="node9" class="node">
<title>RegisterComponent</title>
<polygon fill="#ffffb3" stroke="black" points="824.99,-84.8 697.01,-84.8 697.01,-48.8 824.99,-48.8 824.99,-84.8"/>
<text text-anchor="middle" x="761" y="-62.6" font-family="Times,serif" font-size="14.00">RegisterComponent</text>
</g>
<!-- RegisterComponent&#45;&gt;AppModule -->
<g id="edge9" class="edge">
<title>RegisterComponent&#45;&gt;AppModule</title>
<path fill="none" stroke="black" d="M761,-84.83C761,-101.86 761,-124.8 761,-124.8 761,-124.8 1009.29,-124.8 1009.29,-124.8"/>
<polygon fill="black" stroke="black" points="1009.29,-128.3 1019.29,-124.8 1009.29,-121.3 1009.29,-128.3"/>
</g>
<!-- TodoComponent -->
<g id="node10" class="node">
<title>TodoComponent</title>
<polygon fill="#ffffb3" stroke="black" points="679.38,-84.8 568.62,-84.8 568.62,-48.8 679.38,-48.8 679.38,-84.8"/>
<text text-anchor="middle" x="624" y="-62.6" font-family="Times,serif" font-size="14.00">TodoComponent</text>
</g>
<!-- TodoComponent&#45;&gt;AppModule -->
<g id="edge10" class="edge">
<title>TodoComponent&#45;&gt;AppModule</title>
<path fill="none" stroke="black" d="M624,-85.02C624,-103.63 624,-129.8 624,-129.8 624,-129.8 1009.1,-129.8 1009.1,-129.8"/>
<polygon fill="black" stroke="black" points="1009.1,-133.3 1019.1,-129.8 1009.1,-126.3 1009.1,-133.3"/>
</g>
<!-- TodoListComponent -->
<g id="node11" class="node">
<title>TodoListComponent</title>
<polygon fill="#ffffb3" stroke="black" points="550.16,-84.8 417.84,-84.8 417.84,-48.8 550.16,-48.8 550.16,-84.8"/>
<text text-anchor="middle" x="484" y="-62.6" font-family="Times,serif" font-size="14.00">TodoListComponent</text>
</g>
<!-- TodoListComponent&#45;&gt;AppModule -->
<g id="edge11" class="edge">
<title>TodoListComponent&#45;&gt;AppModule</title>
<path fill="none" stroke="black" d="M484,-85.02C484,-105.17 484,-134.8 484,-134.8 484,-134.8 1009.04,-134.8 1009.04,-134.8"/>
<polygon fill="black" stroke="black" points="1009.04,-138.3 1019.04,-134.8 1009.04,-131.3 1009.04,-138.3"/>
</g>
<!-- AppComponent  -->
<g id="node14" class="node">
<title>AppComponent </title>
<polygon fill="#80b1d3" stroke="black" points="1115.44,-214.8 1006.56,-214.8 1006.56,-178.8 1115.44,-178.8 1115.44,-214.8"/>
<text text-anchor="middle" x="1061" y="-192.6" font-family="Times,serif" font-size="14.00">AppComponent </text>
</g>
<!-- AppModule&#45;&gt;AppComponent  -->
<g id="edge13" class="edge">
<title>AppModule&#45;&gt;AppComponent </title>
<path fill="none" stroke="black" stroke-dasharray="1,5" d="M1061,-149.91C1061,-149.91 1061,-168.79 1061,-168.79"/>
<polygon fill="black" stroke="black" points="1057.5,-168.79 1061,-178.79 1064.5,-168.79 1057.5,-168.79"/>
</g>
<!-- AppRoutingModule -->
<g id="node13" class="node">
<title>AppRoutingModule</title>
<polygon fill="#8dd3c7" stroke="black" points="394.28,-84.8 391.28,-88.8 370.28,-88.8 367.28,-84.8 265.72,-84.8 265.72,-48.8 394.28,-48.8 394.28,-84.8"/>
<text text-anchor="middle" x="330" y="-62.6" font-family="Times,serif" font-size="14.00">AppRoutingModule</text>
</g>
<!-- AppRoutingModule&#45;&gt;AppModule -->
<g id="edge12" class="edge">
<title>AppRoutingModule&#45;&gt;AppModule</title>
<path fill="none" stroke="black" d="M330,-84.84C330,-106.46 330,-139.8 330,-139.8 330,-139.8 1009.07,-139.8 1009.07,-139.8"/>
<polygon fill="black" stroke="black" points="1009.07,-143.3 1019.07,-139.8 1009.07,-136.3 1009.07,-143.3"/>
</g>
<!-- MyInterceptorInterceptor -->
<g id="node15" class="node">
<title>MyInterceptorInterceptor</title>
<ellipse fill="#fdb462" stroke="black" cx="133" cy="-66.8" rx="109.33" ry="18"/>
<text text-anchor="middle" x="133" y="-62.6" font-family="Times,serif" font-size="14.00">MyInterceptorInterceptor</text>
</g>
<!-- MyInterceptorInterceptor&#45;&gt;AppModule -->
<g id="edge14" class="edge">
<title>MyInterceptorInterceptor&#45;&gt;AppModule</title>
<path fill="none" stroke="black" d="M133,-84.89C133,-107.93 133,-144.8 133,-144.8 133,-144.8 1009.32,-144.8 1009.32,-144.8"/>
<polygon fill="black" stroke="black" points="1009.32,-148.3 1019.32,-144.8 1009.32,-141.3 1009.32,-148.3"/>
</g>
</g>
</svg>
